<?xml version="1.0" standalone="no"?>
<!DOCTYPE svg PUBLIC "-//W3C//DTD SVG 20010904//EN"
 "http://www.w3.org/TR/2001/REC-SVG-20010904/DTD/svg10.dtd">
<svg version="1.0" xmlns="http://www.w3.org/2000/svg"
 width="700.000000pt" height="700.000000pt" viewBox="0 0 700.000000 700.000000"
 preserveAspectRatio="xMidYMid meet">
<metadata>
Created by potrace 1.14, written by Peter Selinger 2001-2017
</metadata>
<g transform="translate(0.000000,700.000000) scale(0.100000,-0.100000)"
fill="#000000" stroke="none">
<path d="M5145 5023 c-484 -63 -872 -340 -1093 -779 -130 -260 -192 -544 -192
-882 0 -186 10 -297 41 -452 109 -545 442 -953 912 -1119 168 -59 270 -75 487
-75 153 -1 213 3 278 17 172 38 308 96 453 192 98 66 284 235 278 253 -4 11
-291 352 -296 352 -1 0 -31 -27 -65 -61 -80 -77 -205 -161 -295 -198 -109 -45
-198 -61 -330 -61 -248 0 -420 73 -584 247 -125 134 -207 305 -258 538 -24
112 -26 137 -25 380 0 231 2 271 22 358 80 359 253 607 507 728 110 53 181 70
311 76 228 11 382 -45 582 -209 42 -34 77 -57 82 -52 5 5 72 86 149 179 l141
170 -73 70 c-169 161 -404 278 -641 320 -81 14 -309 19 -391 8z"/>
<path d="M970 3375 l0 -1605 483 0 c500 0 633 7 802 41 723 146 1125 708 1125
1573 0 532 -149 947 -436 1215 -182 170 -406 279 -688 336 -182 36 -346 45
-838 45 l-448 0 0 -1605z m1155 1102 c376 -99 584 -353 657 -802 19 -121 16
-486 -5 -605 -27 -149 -54 -237 -106 -345 -105 -221 -271 -364 -506 -438 -127
-40 -216 -50 -430 -51 l-200 -1 -3 1139 -2 1138 247 -4 c228 -5 256 -7 348
-31z"/>
</g>
</svg>
